<svg xmlns="http://www.w3.org/2000/svg" version="1.1" xmlns:xlink="http://www.w3.org/1999/xlink" xmlns:svgjs="http://svgjs.com/svgjs" width="1440" height="560" preserveAspectRatio="none" viewBox="0 0 1440 560">
    <g mask="url(&quot;#SvgjsMask1009&quot;)" fill="none">
        <rect width="1440" height="560" x="0" y="0" fill="#0e2a47"></rect>
        <path d="M1237.72 245.27L1261.46 245.27L1261.46 289.17L1237.72 289.17z" stroke="#d3b714"></path>
        <path d="M1306.54 454.19L1354.46 454.19L1354.46 495.25L1306.54 495.25z" fill="#d3b714"></path>
        <path d="M167.89 212.44L173.56 212.44L173.56 238.31L167.89 238.31z" stroke="#037b0b"></path>
        <path d="M935.91 306L973.5 306L973.5 343.59L935.91 343.59z" fill="#d3b714"></path>
        <path d="M649.39 536.43L688.97 536.43L688.97 575.95L649.39 575.95z" fill="#e73635"></path>
        <path d="M960.45 452.71L1012.51 452.71L1012.51 508.65L960.45 508.65z" stroke="#e73635"></path>
        <path d="M679.02 51.07L708.77 51.07L708.77 80.82L679.02 80.82z" stroke="#e73635"></path>
        <path d="M1223.74 412.4a5.55 5.55 0 1 0 2.44 10.83z" stroke="#d3b714"></path>
        <path d="M85.63 197.77a23.17 23.17 0 1 0-26.14-38.26z" fill="#d3b714"></path>
        <path d="M1076.45 479.26 a45.61 45.61 0 1 0 91.22 0 a45.61 45.61 0 1 0 -91.22 0z" stroke="#d3b714"></path>
        <path d="M616.68 512.19L621.63 512.19L621.63 517.14L616.68 517.14z" fill="#d3b714"></path>
        <path d="M1164.87 281.35L1210.84 281.35L1210.84 327.32L1164.87 327.32z" fill="#037b0b"></path>
        <path d="M26.39 46.62 a13.79 13.79 0 1 0 27.58 0 a13.79 13.79 0 1 0 -27.58 0z" stroke="#e73635"></path>
        <path d="M556.71 208.59L573.96 208.59L573.96 225.84L556.71 225.84z" fill="#037b0b"></path>
        <path d="M252.35 79.53 a15.87 15.87 0 1 0 31.74 0 a15.87 15.87 0 1 0 -31.74 0z" stroke="#e73635"></path>
        <path d="M195.56 232.26L234.37 232.26L234.37 271.07L195.56 271.07z" fill="#d3b714"></path>
        <path d="M1194.17 195.68a12.34 12.34 0 1 0 5.76-24z" fill="#e73635"></path>
        <path d="M984.07 276.98 a3.04 3.04 0 1 0 6.08 0 a3.04 3.04 0 1 0 -6.08 0z" stroke="#d3b714"></path>
        <path d="M1307.84 448.04a12.21 12.21 0 1 0 10.01 22.27z" stroke="#d3b714"></path>
        <path d="M504.14 549.22L526.29 549.22L526.29 558.57L504.14 558.57z" fill="#037b0b"></path>
        <path d="M406.52 13.11L409.03 13.11L409.03 15.62L406.52 15.62z" stroke="#d3b714"></path>
        <path d="M176.9 155.03 a3.8 3.8 0 1 0 7.6 0 a3.8 3.8 0 1 0 -7.6 0z" stroke="#037b0b"></path>
        <path d="M368.13 224.45L371.23 224.45L371.23 280.11L368.13 280.11z" fill="#d3b714"></path>
        <path d="M429.24 167.99L460.58 167.99L460.58 201.72L429.24 201.72z" stroke="#037b0b"></path>
        <path d="M1236.23 29.2a23.35 23.35 0 1 0 37.73-27.52z" fill="#037b0b"></path>
        <path d="M1423.35 142.2 a2.88 2.88 0 1 0 5.76 0 a2.88 2.88 0 1 0 -5.76 0z" fill="#037b0b"></path>
        <path d="M530.82 554.68L557.1 554.68L557.1 580.96L530.82 580.96z" stroke="#d3b714"></path>
        <path d="M988.04 489.54a28.57 28.57 0 1 0 21.37-52.99z" stroke="#d3b714"></path>
        <path d="M788.5 190.84 a53.09 53.09 0 1 0 106.18 0 a53.09 53.09 0 1 0 -106.18 0z" fill="#037b0b"></path>
        <path d="M267.1 503.23 a46.13 46.13 0 1 0 92.26 0 a46.13 46.13 0 1 0 -92.26 0z" fill="#037b0b"></path>
        <path d="M1022.58 547.87L1075.05 547.87L1075.05 600.34L1022.58 600.34z" fill="#037b0b"></path>
        <path d="M573.92 423.38 a45.54 45.54 0 1 0 91.08 0 a45.54 45.54 0 1 0 -91.08 0z" stroke="#d3b714"></path>
        <path d="M753.07 327.28a52.75 52.75 0 1 0 13.95-104.58z" fill="#e73635"></path>
    </g>
    <defs>
        <mask id="SvgjsMask1009">
            <rect width="1440" height="560" fill="#ffffff"></rect>
        </mask>
    </defs>
</svg>